<?xml version="1.0" encoding="UTF-8" standalone="no"?>
<svg
   xmlns:dc="http://purl.org/dc/elements/1.1/"
   xmlns:cc="http://creativecommons.org/ns#"
   xmlns:rdf="http://www.w3.org/1999/02/22-rdf-syntax-ns#"
   xmlns:svg="http://www.w3.org/2000/svg"
   xmlns="http://www.w3.org/2000/svg"
   viewBox="0 0 20 50.769199"
   height="50.769199"
   width="20"
   xml:space="preserve"
   id="svg2"
   version="1.1"><metadata
     id="metadata8"><rdf:RDF><cc:Work
         rdf:about=""><dc:format>image/svg+xml</dc:format><dc:type
           rdf:resource="http://purl.org/dc/dcmitype/StillImage" /></cc:Work></rdf:RDF></metadata><defs
     id="defs6"><clipPath
       id="clipPath18"
       clipPathUnits="userSpaceOnUse"><path
         id="path16"
         d="M 0,38.077 H 15 V 0 H 0 Z" /></clipPath></defs><g
     transform="matrix(1.3333333,0,0,-1.3333333,0,50.7692)"
     id="g10"><g
       id="g12"><g
         clip-path="url(#clipPath18)"
         id="g14"><g
           transform="translate(-2e-4,32.3076)"
           id="g20"><path
             id="path22"
             style="fill:#ffffff;fill-opacity:1;fill-rule:nonzero;stroke:none"
             d="m 0,0 v -15 c 0,-0.179 0.042,-0.355 0.122,-0.516 0.103,-0.206 0.288,-0.546 0.547,-0.979 0.431,-0.718 0.919,-1.436 1.459,-2.11 1.642,-2.052 3.414,-3.318 5.372,-3.318 1.958,0 3.731,1.266 5.372,3.318 0.54,0.674 1.028,1.392 1.459,2.11 0.26,0.433 0.444,0.773 0.547,0.979 C 14.958,-15.355 15,-15.179 15,-15 V 0 c 0,0.637 -0.517,1.154 -1.153,1.154 H 1.154 C 0.517,1.154 0,0.637 0,0 M 12.692,-1.154 V -14.7 c 0,0 -0.207,-0.386 -0.339,-0.608 -0.381,-0.634 -0.813,-1.268 -1.283,-1.856 -1.243,-1.554 -2.5,-2.451 -3.57,-2.451 -1.07,0 -2.326,0.897 -3.57,2.451 -0.47,0.588 -0.901,1.222 -1.282,1.856 -0.133,0.222 -0.34,0.608 -0.34,0.608 v 13.546 z" /></g><g
           transform="translate(8.6541,24.231)"
           id="g24"><path
             id="path26"
             style="fill:#ffffff;fill-opacity:1;fill-rule:nonzero;stroke:none"
             d="m 0,0 h 4.615 c 0.637,0 1.154,-0.517 1.154,-1.154 0,-0.638 -0.517,-1.154 -1.154,-1.154 H 0 v -9.808 c 0,-0.636 -0.517,-1.153 -1.154,-1.153 -0.637,0 -1.154,0.517 -1.154,1.153 v 9.808 h -4.616 c -0.637,0 -1.153,0.516 -1.153,1.154 0,0.637 0.516,1.154 1.153,1.154 h 4.616 v 7.5 c 0,0.637 0.517,1.154 1.154,1.154 C -0.517,8.654 0,8.137 0,7.5 Z" /></g><g
           transform="translate(8.6541,36.9229)"
           id="g28"><path
             id="path30"
             style="fill:#ffffff;fill-opacity:1;fill-rule:nonzero;stroke:none"
             d="M 0,0 C 0,0.638 -0.517,1.154 -1.154,1.154 -1.791,1.154 -2.308,0.638 -2.308,0 v -1.154 c 0,-0.637 0.517,-1.154 1.154,-1.154 0.637,0 1.154,0.517 1.154,1.154 z" /></g><g
           transform="translate(8.6541,8.0771)"
           id="g32"><path
             id="path34"
             style="fill:#ffffff;fill-opacity:1;fill-rule:nonzero;stroke:none"
             d="M 0,0 C 0,0.637 -0.517,1.153 -1.154,1.153 -1.791,1.153 -2.308,0.637 -2.308,0 v -6.923 c 0,-0.638 0.517,-1.154 1.154,-1.154 0.637,0 1.154,0.516 1.154,1.154 z" /></g></g></g></g></svg>